<?xml version="1.0" encoding="UTF-8" standalone="no"?>
<!-- Created using Krita: https://krita.org -->

<svg
   width="550pt"
   height="300pt"
   viewBox="0 0 550 300"
   version="1.1"
   id="svg3871"
   sodipodi:docname="haskell.svg"
   inkscape:version="1.4.2 (f4327f4, 2025-05-13)"
   xml:space="preserve"
   xmlns:inkscape="http://www.inkscape.org/namespaces/inkscape"
   xmlns:sodipodi="http://sodipodi.sourceforge.net/DTD/sodipodi-0.dtd"
   xmlns:xlink="http://www.w3.org/1999/xlink"
   xmlns="http://www.w3.org/2000/svg"
   xmlns:svg="http://www.w3.org/2000/svg"
   xmlns:rdf="http://www.w3.org/1999/02/22-rdf-syntax-ns#"
   xmlns:cc="http://creativecommons.org/ns#"
   xmlns:dc="http://purl.org/dc/elements/1.1/"><metadata
     id="metadata3875"><rdf:RDF><cc:Work
         rdf:about=""><dc:format>image/svg+xml</dc:format><dc:type
           rdf:resource="http://purl.org/dc/dcmitype/StillImage" /></cc:Work></rdf:RDF></metadata><sodipodi:namedview
     pagecolor="#3f3f3f"
     bordercolor="#666666"
     borderopacity="1"
     objecttolerance="10"
     gridtolerance="10"
     guidetolerance="10"
     inkscape:pageopacity="0"
     inkscape:pageshadow="2"
     inkscape:window-width="2400"
     inkscape:window-height="1321"
     id="namedview3873"
     showgrid="false"
     inkscape:measure-start="404.99,511.996"
     inkscape:measure-end="393.1,487.474"
     inkscape:zoom="2"
     inkscape:cx="400.75"
     inkscape:cy="253"
     inkscape:window-x="4991"
     inkscape:window-y="1475"
     inkscape:window-maximized="1"
     inkscape:current-layer="svg3871"
     inkscape:pagecheckerboard="true"
     inkscape:snap-object-midpoints="false"
     inkscape:snap-others="true"
     inkscape:showpageshadow="0"
     inkscape:deskcolor="#505050"
     inkscape:document-units="pt" /><defs
     id="defs3795"><inkscape:path-effect
       effect="fillet_chamfer"
       id="path-effect15"
       is_visible="true"
       lpeversion="1"
       nodesatellites_param="F,0,0,1,0,0,0,1 @ F,0,1,1,0,3.0000001,0,1 @ F,0,0,1,0,0,0,1 @ F,0,1,1,0,3.0000001,0,1 @ F,0,0,1,0,0,0,1 @ F,0,1,1,0,3.0000001,0,1 @ F,0,1,1,0,3.0000001,0,1 @ F,0,0,1,0,0,0,1 @ F,0,0,1,0,0,0,1 @ F,0,0,1,0,0,0,1 @ F,0,0,1,0,0,0,1 @ F,0,1,1,0,3.0000001,0,1 @ F,0,1,1,0,3.0000001,0,1 @ F,0,0,1,0,0,0,1 @ F,0,1,1,0,3.0000001,0,1"
       radius="4"
       unit="px"
       method="auto"
       mode="F"
       chamfer_steps="1"
       flexible="false"
       use_knot_distance="true"
       apply_no_radius="true"
       apply_with_radius="true"
       only_selected="true"
       hide_knots="false" /><inkscape:path-effect
       effect="fillet_chamfer"
       id="path-effect14"
       is_visible="true"
       lpeversion="1"
       nodesatellites_param="F,0,1,1,0,2.2500001,0,1 @ F,0,1,1,0,2.2500001,0,1 @ F,0,0,1,0,0,0,1 @ F,0,1,1,0,2.2500001,0,1 @ F,0,1,1,0,2.2500001,0,1 @ F,0,0,1,0,0,0,1 @ F,0,1,1,0,2.2500001,0,1 @ F,0,1,1,0,2.2500001,0,1 @ F,0,0,1,0,0,0,1 @ F,0,0,1,0,0,0,1 @ F,0,1,1,0,2.2500001,0,1 | F,0,1,1,0,2.2500001,0,1 @ F,0,1,1,0,2.2500001,0,1 @ F,0,0,1,0,0,0,1 @ F,0,0,1,0,0,0,1 @ F,0,1,1,0,2.2500001,0,1 @ F,0,1,1,0,2.2500001,0,1 @ F,0,0,1,0,0,0,1 @ F,0,0,1,0,0,0,1 @ F,0,0,1,0,0,0,1"
       radius="3"
       unit="px"
       method="auto"
       mode="F"
       chamfer_steps="1"
       flexible="false"
       use_knot_distance="true"
       apply_no_radius="true"
       apply_with_radius="true"
       only_selected="true"
       hide_knots="false" /><inkscape:path-effect
       effect="fillet_chamfer"
       id="path-effect13"
       is_visible="true"
       lpeversion="1"
       nodesatellites_param="F,0,1,1,0,2.2500001,0,1 @ F,0,0,1,0,0,0,1 @ F,0,0,1,0,0,0,1 @ F,0,1,1,0,2.2500001,0,1 @ F,0,1,1,0,2.2500001,0,1 @ F,0,0,1,0,0,0,1 @ F,0,0,1,0,0,0,1 @ F,0,0,1,0,0,0,1 @ F,0,0,1,0,0,0,1 @ F,0,1,1,0,2.2500001,0,1 @ F,0,1,1,0,2.2500001,0,1 @ F,0,0,1,0,0,0,1 @ F,0,0,1,0,0,0,1 @ F,0,0,1,0,0,0,1 @ F,0,1,1,0,2.2500001,0,1 @ F,0,1,1,0,2.2500001,0,1 @ F,0,0,1,0,0,0,1 @ F,0,1,1,0,2.2500001,0,1 @ F,0,1,1,0,2.2500001,0,1 @ F,0,1,1,0,2.2500001,0,1"
       radius="3"
       unit="px"
       method="auto"
       mode="F"
       chamfer_steps="1"
       flexible="false"
       use_knot_distance="true"
       apply_no_radius="true"
       apply_with_radius="true"
       only_selected="true"
       hide_knots="false" /><inkscape:path-effect
       effect="fillet_chamfer"
       id="path-effect12"
       is_visible="true"
       lpeversion="1"
       nodesatellites_param="F,0,1,1,0,2.2500001,0,1 @ F,0,1,1,0,2.2500001,0,1 @ F,0,0,1,0,0,0,1 @ F,0,0,1,0,0,0,1 @ F,0,0,1,0,0,0,1 @ F,0,0,1,0,0,0,1 @ F,0,1,1,0,2.2500001,0,1 @ F,0,1,1,0,2.2500001,0,1 @ F,0,0,1,0,0,0,1 @ F,0,0,1,0,0,0,1 @ F,0,1,1,0,2.2500001,0,1 @ F,0,1,1,0,2.2500001,0,1 @ F,0,0,1,0,0,0,1 @ F,0,0,1,0,0,0,1 @ F,0,1,1,0,2.2500001,0,1"
       radius="3"
       unit="px"
       method="auto"
       mode="F"
       chamfer_steps="1"
       flexible="false"
       use_knot_distance="true"
       apply_no_radius="true"
       apply_with_radius="true"
       only_selected="true"
       hide_knots="false" /><inkscape:path-effect
       effect="fillet_chamfer"
       id="path-effect143"
       is_visible="true"
       lpeversion="1"
       nodesatellites_param="F,0,0,1,0,2.9999999,0,1 @ F,0,0,1,0,2.9999999,0,1 @ F,0,0,1,0,2.9999999,0,1 @ F,0,0,1,0,2.9999999,0,1 @ F,0,0,1,0,2.9999999,0,1 @ F,0,0,1,0,2.9999999,0,1 @ F,0,0,1,0,2.9999999,0,1 @ F,0,0,1,0,2.9999999,0,1 @ F,0,0,1,0,2.9999999,0,1 @ F,0,0,1,0,2.9999999,0,1 @ F,0,0,1,0,2.9999999,0,1 @ F,0,0,1,0,2.9999999,0,1 @ F,0,0,1,0,2.9999999,0,1 @ F,0,0,1,0,2.9999999,0,1 @ F,0,0,1,0,2.9999999,0,1 | F,0,0,1,0,2.9999999,0,1 @ F,0,0,1,0,2.9999999,0,1 @ F,0,0,1,0,2.9999999,0,1 @ F,0,0,1,0,2.9999999,0,1 @ F,0,0,1,0,2.9999999,0,1 @ F,0,0,1,0,2.9999999,0,1 @ F,0,0,1,0,2.9999999,0,1 @ F,0,0,1,0,2.9999999,0,1 @ F,0,0,1,0,2.9999999,0,1 @ F,0,0,1,0,2.9999999,0,1 @ F,0,0,1,0,2.9999999,0,1 @ F,0,0,1,0,2.9999999,0,1 @ F,0,0,1,0,2.9999999,0,1 @ F,0,0,1,0,2.9999999,0,1 @ F,0,0,1,0,2.9999999,0,1 @ F,0,0,1,0,2.9999999,0,1 @ F,0,0,1,0,2.9999999,0,1 @ F,0,0,1,0,2.9999999,0,1 @ F,0,0,1,0,2.9999999,0,1 @ F,0,0,1,0,2.9999999,0,1 @ F,0,0,1,0,2.9999999,0,1 @ F,0,0,1,0,2.9999999,0,1 @ F,0,0,1,0,2.9999999,0,1 @ F,0,0,1,0,2.9999999,0,1 @ F,0,0,1,0,2.9999999,0,1 @ F,0,0,1,0,2.9999999,0,1 @ F,0,0,1,0,2.9999999,0,1 @ F,0,0,1,0,2.9999999,0,1 @ F,0,0,1,0,2.9999999,0,1 @ F,0,0,1,0,2.9999999,0,1 @ F,0,0,1,0,2.9999999,0,1 @ F,0,0,1,0,2.9999999,0,1 @ F,0,0,1,0,2.9999999,0,1 | F,0,0,1,0,2.9999999,0,1 @ F,0,0,1,0,2.9999999,0,1 @ F,0,0,1,0,2.9999999,0,1 @ F,0,0,1,0,2.9999999,0,1 @ F,0,0,1,0,2.9999999,0,1 @ F,0,0,1,0,2.9999999,0,1 @ F,0,0,1,0,2.9999999,0,1 @ F,0,0,1,0,2.9999999,0,1 @ F,0,0,1,0,2.9999999,0,1 @ F,0,0,1,0,2.9999999,0,1 @ F,0,0,1,0,2.9999999,0,1 @ F,0,0,1,0,2.9999999,0,1 @ F,0,0,1,0,2.9999999,0,1 @ F,0,0,1,0,2.9999999,0,1"
       radius="4"
       unit="px"
       method="auto"
       mode="F"
       chamfer_steps="1"
       flexible="false"
       use_knot_distance="true"
       apply_no_radius="true"
       apply_with_radius="true"
       only_selected="false"
       hide_knots="false" /><inkscape:path-effect
       effect="fillet_chamfer"
       id="path-effect142"
       is_visible="true"
       lpeversion="1"
       nodesatellites_param="F,0,0,1,0,6.7500002,0,1 @ F,0,0,1,0,6.7500002,0,1 @ F,0,0,1,0,6.7500002,0,1 @ F,0,0,1,0,6.7500002,0,1 @ F,0,0,1,0,6.7500002,0,1 @ F,0,0,1,0,6.7500002,0,1 @ F,0,0,1,0,6.7500002,0,1 @ F,0,0,1,0,6.7500002,0,1 @ F,0,0,1,0,6.7500002,0,1 @ F,0,0,1,0,6.7500002,0,1 @ F,0,0,1,0,6.7500002,0,1 @ F,0,0,1,0,6.7500002,0,1 @ F,0,0,1,0,6.7500002,0,1 @ F,0,0,1,0,6.7500002,0,1"
       radius="10"
       unit="px"
       method="auto"
       mode="F"
       chamfer_steps="1"
       flexible="false"
       use_knot_distance="true"
       apply_no_radius="true"
       apply_with_radius="true"
       only_selected="false"
       hide_knots="false" /><inkscape:path-effect
       effect="fillet_chamfer"
       id="path-effect139"
       is_visible="true"
       lpeversion="1"
       nodesatellites_param="F,0,0,1,0,3.7499999,0,1 @ F,0,0,1,0,3.7499999,0,1 @ F,0,0,1,0,0,0,1 @ F,0,0,1,0,0,0,1 @ F,0,0,1,0,0,0,1 @ F,0,0,1,0,0,0,1 @ F,0,0,1,0,0,0,1 @ F,0,0,1,0,3.7499999,0,1 @ F,0,0,1,0,3.7499999,0,1 @ F,0,0,1,0,0,0,1 | F,0,0,1,0,3.7499999,0,1 @ F,0,0,1,0,3.7499999,0,1 @ F,0,0,1,0,0,0,1 @ F,0,0,1,0,3.7499999,0,1 @ F,0,0,1,0,3.7499999,0,1 @ F,0,0,1,0,0,0,1 @ F,0,0,1,0,3.7499999,0,1 @ F,0,0,1,0,3.7499999,0,1 | F,0,0,1,0,0,0,1 @ F,0,0,1,0,0,0,1 @ F,0,0,1,0,0,0,1 @ F,0,0,1,0,0,0,1 @ F,0,0,1,0,0,0,1 @ F,0,0,1,0,0,0,1 @ F,0,0,1,0,0,0,1 @ F,0,0,1,0,3.7499999,0,1 @ F,0,0,1,0,3.7499999,0,1 @ F,0,0,1,0,0,0,1 @ F,0,0,1,0,0,0,1 @ F,0,0,1,0,0,0,1 @ F,0,0,1,0,0,0,1 @ F,0,0,1,0,0,0,1 @ F,0,0,1,0,0,0,1 @ F,0,0,1,0,3.7499999,0,1 @ F,0,0,1,0,3.7499999,0,1 @ F,0,0,1,0,0,0,1 @ F,0,0,1,0,0,0,1 | F,0,0,1,0,3.7499999,0,1 @ F,0,0,1,0,3.7499999,0,1 @ F,0,0,1,0,3.7499999,0,1 @ F,0,0,1,0,3.7499999,0,1 | F,0,0,1,0,3.7499999,0,1 @ F,0,0,1,0,3.7499999,0,1 @ F,0,0,1,0,3.7499999,0,1 @ F,0,0,1,0,3.7499999,0,1 | F,0,0,1,0,0,0,1 @ F,0,0,1,0,0,0,1 @ F,0,0,1,0,0,0,1 @ F,0,0,1,0,0,0,1 @ F,0,0,1,0,0,0,1 @ F,0,0,1,0,0,0,1 | F,0,0,1,0,0,0,1 @ F,0,0,1,0,0,0,1 @ F,0,0,1,0,0,0,1 @ F,0,0,1,0,0,0,1 @ F,0,0,1,0,0,0,1 @ F,0,1,1,0,3.7499999,0,1 @ F,0,1,1,0,3.7499999,0,1 @ F,0,0,1,0,0,0,1 @ F,0,0,1,0,0,0,1 @ F,0,0,1,0,0,0,1 @ F,0,0,1,0,0,0,1 @ F,0,1,1,0,3.7499999,0,1 @ F,0,1,1,0,3.7499999,0,1 @ F,0,0,1,0,0,0,1 @ F,0,0,1,0,0,0,1 @ F,0,0,1,0,0,0,1 @ F,0,0,1,0,0,0,1 | F,0,0,1,0,3.7499999,0,1 @ F,0,0,1,0,3.7499999,0,1 @ F,0,0,1,0,3.7499999,0,1 @ F,0,0,1,0,3.7499999,0,1 @ F,0,0,1,0,0,0,1 @ F,0,0,1,0,3.7499999,0,1 @ F,0,0,1,0,3.7499999,0,1 @ F,0,0,1,0,0,0,1 | F,0,0,1,0,3.7499999,0,1 @ F,0,0,1,0,3.7499999,0,1 @ F,0,0,1,0,3.7499999,0,1 @ F,0,0,1,0,3.7499999,0,1 | F,0,0,1,0,3.7499999,0,1 @ F,0,0,1,0,3.7499999,0,1 @ F,0,0,1,0,3.7499999,0,1 @ F,0,0,1,0,3.7499999,0,1"
       radius="5"
       unit="px"
       method="auto"
       mode="F"
       chamfer_steps="1"
       flexible="false"
       use_knot_distance="true"
       apply_no_radius="true"
       apply_with_radius="true"
       only_selected="true"
       hide_knots="false" /><linearGradient
       id="linearGradient135"
       inkscape:collect="always"><stop
         style="stop-color:#533e8b;stop-opacity:1;"
         offset="0.14649542"
         id="stop135" /><stop
         style="stop-color:#735cb2;stop-opacity:1;"
         offset="0.15067066"
         id="stop137" /><stop
         style="stop-color:#bc66b8;stop-opacity:1;"
         offset="1"
         id="stop136" /></linearGradient><inkscape:path-effect
       effect="fillet_chamfer"
       id="path-effect134"
       is_visible="true"
       lpeversion="1"
       nodesatellites_param="F,0,0,1,0,0,0,1 @ F,0,0,1,0,0,0,1 @ F,0,0,1,0,0,0,1 @ F,0,0,1,0,0,0,1"
       radius="0"
       unit="px"
       method="auto"
       mode="F"
       chamfer_steps="1"
       flexible="false"
       use_knot_distance="true"
       apply_no_radius="true"
       apply_with_radius="true"
       only_selected="false"
       hide_knots="false" /><inkscape:path-effect
       effect="fillet_chamfer"
       id="path-effect133"
       is_visible="true"
       lpeversion="1"
       nodesatellites_param="F,0,0,1,0,3.7499999,0,1 @ F,0,0,1,0,3.7499999,0,1 @ F,0,0,1,0,0,0,1 @ F,0,0,1,0,0,0,1 @ F,0,0,1,0,0,0,1 @ F,0,0,1,0,0,0,1 @ F,0,0,1,0,0,0,1 @ F,0,0,1,0,3.7499999,0,1 @ F,0,0,1,0,3.7499999,0,1 @ F,0,0,1,0,0,0,1 | F,0,0,1,0,3.7499999,0,1 @ F,0,0,1,0,3.7499999,0,1 @ F,0,0,1,0,0,0,1 @ F,0,0,1,0,3.7499999,0,1 @ F,0,0,1,0,3.7499999,0,1 @ F,0,0,1,0,0,0,1 @ F,0,0,1,0,3.7499999,0,1 @ F,0,0,1,0,3.7499999,0,1 | F,0,0,1,0,0,0,1 @ F,0,0,1,0,0,0,1 @ F,0,0,1,0,0,0,1 @ F,0,0,1,0,0,0,1 @ F,0,0,1,0,0,0,1 @ F,0,0,1,0,0,0,1 @ F,0,0,1,0,0,0,1 @ F,0,0,1,0,3.7499999,0,1 @ F,0,0,1,0,3.7499999,0,1 @ F,0,0,1,0,0,0,1 @ F,0,0,1,0,0,0,1 @ F,0,0,1,0,0,0,1 @ F,0,0,1,0,0,0,1 @ F,0,0,1,0,0,0,1 @ F,0,0,1,0,0,0,1 @ F,0,0,1,0,3.7499999,0,1 @ F,0,0,1,0,3.7499999,0,1 @ F,0,0,1,0,0,0,1 @ F,0,0,1,0,0,0,1 | F,0,0,1,0,3.7499999,0,1 @ F,0,0,1,0,3.7499999,0,1 @ F,0,0,1,0,3.7499999,0,1 @ F,0,0,1,0,3.7499999,0,1 | F,0,0,1,0,3.7499999,0,1 @ F,0,0,1,0,3.7499999,0,1 @ F,0,0,1,0,3.7499999,0,1 @ F,0,0,1,0,3.7499999,0,1 | F,0,0,1,0,0,0,1 @ F,0,0,1,0,0,0,1 @ F,0,0,1,0,0,0,1 @ F,0,0,1,0,0,0,1 @ F,0,0,1,0,0,0,1 @ F,0,0,1,0,0,0,1 | F,0,0,1,0,0,0,1 @ F,0,0,1,0,0,0,1 @ F,0,0,1,0,0,0,1 @ F,0,0,1,0,0,0,1 @ F,0,0,1,0,0,0,1 @ F,0,1,1,0,3.7499999,0,1 @ F,0,1,1,0,3.7499999,0,1 @ F,0,0,1,0,0,0,1 @ F,0,0,1,0,0,0,1 @ F,0,0,1,0,0,0,1 @ F,0,0,1,0,0,0,1 @ F,0,1,1,0,3.7499999,0,1 @ F,0,1,1,0,3.7499999,0,1 @ F,0,0,1,0,0,0,1 @ F,0,0,1,0,0,0,1 @ F,0,0,1,0,0,0,1 @ F,0,0,1,0,0,0,1 | F,0,0,1,0,3.7499999,0,1 @ F,0,0,1,0,3.7499999,0,1 @ F,0,0,1,0,3.7499999,0,1 @ F,0,0,1,0,3.7499999,0,1 @ F,0,0,1,0,0,0,1 @ F,0,0,1,0,3.7499999,0,1 @ F,0,0,1,0,3.7499999,0,1 @ F,0,0,1,0,0,0,1 | F,0,0,1,0,3.7499999,0,1 @ F,0,0,1,0,3.7499999,0,1 @ F,0,0,1,0,3.7499999,0,1 @ F,0,0,1,0,3.7499999,0,1 | F,0,0,1,0,3.7499999,0,1 @ F,0,0,1,0,3.7499999,0,1 @ F,0,0,1,0,3.7499999,0,1 @ F,0,0,1,0,3.7499999,0,1"
       radius="5"
       unit="px"
       method="auto"
       mode="F"
       chamfer_steps="1"
       flexible="false"
       use_knot_distance="true"
       apply_no_radius="true"
       apply_with_radius="true"
       only_selected="true"
       hide_knots="false" /><mask
       maskUnits="userSpaceOnUse"
       id="mask1393"><path
         inkscape:connector-curvature="0"
         id="path1395"
         d="m 364.72119,153.01758 -20.99853,1.22021 0.61084,10.49854 4.60986,79.29931 0.60937,10.49707 20.99854,-1.22021 -0.60938,-10.49854 -2.58398,-44.458 15.60938,5.10498 9.99609,3.26952 6.53906,-19.99218 -9.99609,-3.26807 -17.77442,-5.81396 -5.68652,-1.85889 -0.71338,-12.28125 z"
         style="color:#000000;font-style:normal;font-variant:normal;font-weight:normal;font-stretch:normal;font-size:medium;line-height:normal;font-family:sans-serif;font-variant-ligatures:normal;font-variant-position:normal;font-variant-caps:normal;font-variant-numeric:normal;font-variant-alternates:normal;font-feature-settings:normal;text-indent:0;text-align:start;text-decoration:none;text-decoration-line:none;text-decoration-style:solid;text-decoration-color:#000000;letter-spacing:normal;word-spacing:normal;text-transform:none;writing-mode:lr-tb;direction:ltr;text-orientation:mixed;dominant-baseline:auto;baseline-shift:baseline;text-anchor:start;white-space:normal;shape-padding:0;clip-rule:nonzero;display:inline;overflow:visible;visibility:visible;opacity:1;isolation:auto;mix-blend-mode:normal;color-interpolation:sRGB;color-interpolation-filters:linearRGB;solid-color:#000000;solid-opacity:1;vector-effect:none;fill:#000000;fill-opacity:1;fill-rule:nonzero;stroke:#000000;stroke-width:5.25;stroke-linecap:square;stroke-linejoin:round;stroke-miterlimit:4;stroke-dasharray:none;stroke-dashoffset:0;stroke-opacity:1;paint-order:normal;color-rendering:auto;image-rendering:auto;shape-rendering:auto;text-rendering:auto;enable-background:accumulate" /></mask><mask
       maskUnits="userSpaceOnUse"
       id="mask1397"><path
         inkscape:connector-curvature="0"
         id="path1399"
         d="m 364.72119,153.01758 -20.99853,1.22021 0.61084,10.49854 4.60986,79.29931 0.60937,10.49707 20.99854,-1.22021 -0.60938,-10.49854 -2.58398,-44.458 15.60938,5.10498 9.99609,3.26952 6.53906,-19.99218 -9.99609,-3.26807 -17.77442,-5.81396 -5.68652,-1.85889 -0.71338,-12.28125 z"
         style="color:#000000;font-style:normal;font-variant:normal;font-weight:normal;font-stretch:normal;font-size:medium;line-height:normal;font-family:sans-serif;font-variant-ligatures:normal;font-variant-position:normal;font-variant-caps:normal;font-variant-numeric:normal;font-variant-alternates:normal;font-feature-settings:normal;text-indent:0;text-align:start;text-decoration:none;text-decoration-line:none;text-decoration-style:solid;text-decoration-color:#000000;letter-spacing:normal;word-spacing:normal;text-transform:none;writing-mode:lr-tb;direction:ltr;text-orientation:mixed;dominant-baseline:auto;baseline-shift:baseline;text-anchor:start;white-space:normal;shape-padding:0;clip-rule:nonzero;display:inline;overflow:visible;visibility:visible;opacity:1;isolation:auto;mix-blend-mode:normal;color-interpolation:sRGB;color-interpolation-filters:linearRGB;solid-color:#000000;solid-opacity:1;vector-effect:none;fill:#000000;fill-opacity:1;fill-rule:nonzero;stroke:#000000;stroke-width:5.25;stroke-linecap:square;stroke-linejoin:round;stroke-miterlimit:4;stroke-dasharray:none;stroke-dashoffset:0;stroke-opacity:1;paint-order:normal;color-rendering:auto;image-rendering:auto;shape-rendering:auto;text-rendering:auto;enable-background:accumulate" /></mask><mask
       maskUnits="userSpaceOnUse"
       id="mask1401"><path
         inkscape:connector-curvature="0"
         id="path1403"
         d="m 364.72119,153.01758 -20.99853,1.22021 0.61084,10.49854 4.60986,79.29931 0.60937,10.49707 20.99854,-1.22021 -0.60938,-10.49854 -2.58398,-44.458 15.60938,5.10498 9.99609,3.26952 6.53906,-19.99218 -9.99609,-3.26807 -17.77442,-5.81396 -5.68652,-1.85889 -0.71338,-12.28125 z"
         style="color:#000000;font-style:normal;font-variant:normal;font-weight:normal;font-stretch:normal;font-size:medium;line-height:normal;font-family:sans-serif;font-variant-ligatures:normal;font-variant-position:normal;font-variant-caps:normal;font-variant-numeric:normal;font-variant-alternates:normal;font-feature-settings:normal;text-indent:0;text-align:start;text-decoration:none;text-decoration-line:none;text-decoration-style:solid;text-decoration-color:#000000;letter-spacing:normal;word-spacing:normal;text-transform:none;writing-mode:lr-tb;direction:ltr;text-orientation:mixed;dominant-baseline:auto;baseline-shift:baseline;text-anchor:start;white-space:normal;shape-padding:0;clip-rule:nonzero;display:inline;overflow:visible;visibility:visible;opacity:1;isolation:auto;mix-blend-mode:normal;color-interpolation:sRGB;color-interpolation-filters:linearRGB;solid-color:#000000;solid-opacity:1;vector-effect:none;fill:#000000;fill-opacity:1;fill-rule:nonzero;stroke:#000000;stroke-width:5.25;stroke-linecap:square;stroke-linejoin:round;stroke-miterlimit:4;stroke-dasharray:none;stroke-dashoffset:0;stroke-opacity:1;paint-order:normal;color-rendering:auto;image-rendering:auto;shape-rendering:auto;text-rendering:auto;enable-background:accumulate" /></mask><mask
       maskUnits="userSpaceOnUse"
       id="mask1405"><path
         inkscape:connector-curvature="0"
         id="path1407"
         d="m 364.72119,153.01758 -20.99853,1.22021 0.61084,10.49854 4.60986,79.29931 0.60937,10.49707 20.99854,-1.22021 -0.60938,-10.49854 -2.58398,-44.458 15.60938,5.10498 9.99609,3.26952 6.53906,-19.99218 -9.99609,-3.26807 -17.77442,-5.81396 -5.68652,-1.85889 -0.71338,-12.28125 z"
         style="color:#000000;font-style:normal;font-variant:normal;font-weight:normal;font-stretch:normal;font-size:medium;line-height:normal;font-family:sans-serif;font-variant-ligatures:normal;font-variant-position:normal;font-variant-caps:normal;font-variant-numeric:normal;font-variant-alternates:normal;font-feature-settings:normal;text-indent:0;text-align:start;text-decoration:none;text-decoration-line:none;text-decoration-style:solid;text-decoration-color:#000000;letter-spacing:normal;word-spacing:normal;text-transform:none;writing-mode:lr-tb;direction:ltr;text-orientation:mixed;dominant-baseline:auto;baseline-shift:baseline;text-anchor:start;white-space:normal;shape-padding:0;clip-rule:nonzero;display:inline;overflow:visible;visibility:visible;opacity:1;isolation:auto;mix-blend-mode:normal;color-interpolation:sRGB;color-interpolation-filters:linearRGB;solid-color:#000000;solid-opacity:1;vector-effect:none;fill:#000000;fill-opacity:1;fill-rule:nonzero;stroke:#000000;stroke-width:5.25;stroke-linecap:square;stroke-linejoin:round;stroke-miterlimit:4;stroke-dasharray:none;stroke-dashoffset:0;stroke-opacity:1;paint-order:normal;color-rendering:auto;image-rendering:auto;shape-rendering:auto;text-rendering:auto;enable-background:accumulate" /></mask><clipPath
       clipPathUnits="userSpaceOnUse"
       id="clipPath1583"><g
         id="use1585"
         inkscape:label="Clip"><path
           d="m 364.72119,153.01758 -20.99853,1.22021 0.61084,10.49854 4.60986,79.29931 0.60937,10.49707 20.99854,-1.22021 -0.60938,-10.49854 -2.58398,-44.458 15.60938,5.10498 9.99609,3.26952 6.53906,-19.99218 -9.99609,-3.26807 -17.77442,-5.81396 -5.68652,-1.85889 -0.71338,-12.28125 z m -151.49538,82.323 c -18.28302,3.49966 -30.64444,21.21206 -27.15543,39.43943 3.48902,18.22737 21.51783,30.12257 39.80084,26.6229 18.28301,-3.49966 30.64445,-21.21205 27.15543,-39.43943 -3.48901,-18.22737 -21.51783,-30.12257 -39.80084,-26.6229 z m 3.60951,18.85686 c 8.28099,-1.58511 15.83319,3.5326 17.33446,11.37555 1.50128,7.84297 -3.62745,15.38602 -11.90844,16.97114 -8.28098,1.58512 -15.83282,-3.53067 -17.33409,-11.37364 -1.50127,-7.84295 3.62709,-15.38793 11.90807,-16.97305 z m 66.34388,-64.22039 -1.67725,10.38281 -12.56836,77.78467 -1.67724,10.38281 20.76709,3.35596 1.67724,-10.38574 7.22754,-44.73194 13.68457,8.11963 9.04688,5.36426 10.73291,-18.08935 -9.04688,-5.3672 -17.87256,-10.604 -2.93994,-1.74316 1.73438,-10.73145 1.67725,-10.38281 z m -120.52881,-22.35352 -26.23096,1.00489 0.50244,13.11621 c 0.27677,7.22807 0.54884,14.57711 0.82178,21.88476 -6.6425,0.23698 -13.28522,0.47347 -19.92773,0.71045 l -13.11621,0.46875 0.93456,26.23243 13.11768,-0.46729 c 6.65616,-0.23747 13.31112,-0.47445 19.96728,-0.71192 0.34762,9.4515 0.69503,18.90934 1.04298,28.36231 l 0.48193,13.11767 26.23242,-0.96679 -0.48193,-13.11475 c -0.94216,-25.5964 -1.87759,-51.34111 -2.8418,-76.52197 z m -68.013671,3.45264 -26.214844,1.33594 0.667969,13.10742 3.845703,75.49609 0.667969,13.10743 26.214843,-1.33594 -0.667968,-13.10742 -3.845703,-75.49414 z"
           style="color:#000000;font-style:normal;font-variant:normal;font-weight:normal;font-stretch:normal;font-size:medium;line-height:normal;font-family:sans-serif;font-variant-ligatures:normal;font-variant-position:normal;font-variant-caps:normal;font-variant-numeric:normal;font-variant-alternates:normal;font-feature-settings:normal;text-indent:0;text-align:start;text-decoration:none;text-decoration-line:none;text-decoration-style:solid;text-decoration-color:#000000;letter-spacing:normal;word-spacing:normal;text-transform:none;writing-mode:lr-tb;direction:ltr;text-orientation:mixed;dominant-baseline:auto;baseline-shift:baseline;text-anchor:start;white-space:normal;shape-padding:0;clip-rule:nonzero;display:inline;overflow:visible;visibility:visible;opacity:1;isolation:auto;mix-blend-mode:normal;color-interpolation:sRGB;color-interpolation-filters:linearRGB;solid-color:#000000;solid-opacity:1;vector-effect:none;fill:#000000;fill-opacity:1;fill-rule:nonzero;stroke:#000000;stroke-width:5.25;stroke-linecap:square;stroke-linejoin:round;stroke-miterlimit:4;stroke-dasharray:none;stroke-dashoffset:0;stroke-opacity:1;paint-order:normal;color-rendering:auto;image-rendering:auto;shape-rendering:auto;text-rendering:auto;enable-background:accumulate"
           id="path1597"
           inkscape:connector-curvature="0" /></g></clipPath><clipPath
       clipPathUnits="userSpaceOnUse"
       id="clipPath2048"><path
         id="path2051"
         style="color:#000000;font-style:normal;font-variant:normal;font-weight:normal;font-stretch:normal;font-size:medium;line-height:normal;font-family:sans-serif;font-variant-ligatures:normal;font-variant-position:normal;font-variant-caps:normal;font-variant-numeric:normal;font-variant-alternates:normal;font-feature-settings:normal;text-indent:0;text-align:start;text-decoration:none;text-decoration-line:none;text-decoration-style:solid;text-decoration-color:#000000;letter-spacing:normal;word-spacing:normal;text-transform:none;writing-mode:lr-tb;direction:ltr;text-orientation:mixed;dominant-baseline:auto;baseline-shift:baseline;text-anchor:start;white-space:normal;shape-padding:0;clip-rule:nonzero;display:inline;overflow:visible;visibility:visible;opacity:1;isolation:auto;mix-blend-mode:normal;color-interpolation:sRGB;color-interpolation-filters:linearRGB;solid-color:#000000;solid-opacity:1;vector-effect:none;fill:#000000;fill-opacity:1;fill-rule:nonzero;stroke:none;stroke-width:5.25;stroke-linecap:square;stroke-linejoin:round;stroke-miterlimit:4;stroke-dasharray:none;stroke-dashoffset:0;stroke-opacity:1;paint-order:normal;color-rendering:auto;image-rendering:auto;shape-rendering:auto;text-rendering:auto;enable-background:accumulate"
         d="m 364.75391,150.39258 c -0.0619,-7.5e-4 -0.12377,4.8e-4 -0.18555,0.004 l -20.99805,1.22071 c -1.44765,0.084 -2.55303,1.32579 -2.46875,2.77343 l 0.61133,10.49805 4.60938,79.29884 0.60937,10.49805 c 0.085,1.44687 1.32652,2.55108 2.77344,2.46678 l 20.99804,-1.21875 c 1.44766,-0.084 2.55304,-1.32579 2.46876,-2.77343 l -0.60938,-10.49805 -2.36133,-40.61328 11.94922,3.90625 9.99609,3.26953 c 1.37803,0.45162 2.86122,-0.29958 3.3125,-1.67773 l 6.53907,-19.99219 c 0.45018,-1.378 -0.30178,-2.86007 -1.67969,-3.31055 l -9.99609,-3.26953 -17.77344,-5.8125 h -0.002 l -3.98439,-1.30468 -0.60938,-10.49415 -0.61132,-10.49805 c -0.08,-1.37567 -1.21001,-2.45535 -2.58789,-2.47265 z m -144.68555,81.71484 c -2.4217,-0.0283 -4.8766,0.18354 -7.33594,0.6543 -19.67473,3.76605 -33.00351,22.85149 -29.24023,42.51172 3.76329,19.66023 23.19832,32.4731 42.87304,28.70703 19.67473,-3.76606 33.00353,-22.84953 29.24024,-42.50977 -3.29287,-17.2027 -18.58524,-29.16489 -35.53711,-29.36328 z m 2.25395,24.65039 c 4.70159,0.91299 8.34305,4.46849 9.26953,9.3086 1.23531,6.45349 -2.85696,12.56674 -9.82422,13.90039 -6.96725,1.33365 -13.02642,-2.83558 -14.26172,-9.28907 -1.2353,-6.45346 2.85541,-12.56877 9.82226,-13.90234 1.74172,-0.33339 3.42695,-0.32191 4.99415,-0.0176 z m 60.75191,-69.40429 c -1.24774,0.0502 -2.28747,0.97226 -2.48633,2.20507 l -1.67773,10.38282 -12.56836,77.78515 -1.67774,10.38282 c -0.23085,1.43141 0.74242,2.77893 2.17383,3.00976 l 20.76758,3.35547 c 1.43076,0.23092 2.77798,-0.74126 3.00976,-2.17188 l 1.67774,-10.38671 6.61133,-40.92579 10.36914,6.15235 9.04687,5.36523 c 1.24694,0.74008 2.85775,0.32907 3.59766,-0.91797 L 332.65039,233.5 c 0.74008,-1.24694 0.32907,-2.85775 -0.91797,-3.59766 l -9.04687,-5.36718 -17.87305,-10.60352 -1.40234,-0.83203 1.44922,-8.9668 1.67773,-10.38281 c 0.23085,-1.43141 -0.74241,-2.77894 -2.17383,-3.00977 l -20.76562,-3.35546 c -0.173,-0.0278 -0.34836,-0.0383 -0.52344,-0.0312 z M 162.55078,165 l -26.23242,1.00586 c -1.44781,0.0562 -2.57633,1.27479 -2.52148,2.72266 l 0.50195,13.11718 c 0.24346,6.3583 0.48259,12.8167 0.72265,19.25391 -5.76616,0.20562 -11.53249,0.41147 -17.29882,0.61719 l -13.11719,0.46875 c -1.44853,0.0521 -2.58077,1.26824 -2.5293,2.71679 l 0.93555,26.23243 c 0.0521,1.44853 1.26825,2.58077 2.7168,2.52929 l 13.11718,-0.46679 c 5.78229,-0.2063 11.56348,-0.41294 17.34571,-0.61915 0.31548,8.5796 0.63144,17.16207 0.94726,25.74219 l 0.48242,13.11719 c 0.0531,1.44855 1.27018,2.57993 2.71875,2.52734 l 26.23243,-0.96679 c 1.44855,-0.0531 2.57993,-1.27018 2.52734,-2.71875 l -0.48242,-13.11524 c -0.94213,-25.59557 -1.87746,-51.34104 -2.8418,-76.52539 l -0.50195,-13.11523 c -0.0552,-1.44859 -1.27406,-2.57827 -2.72266,-2.52344 z m -67.86328,3.45117 c -0.0612,-7.5e-4 -0.12246,5.3e-4 -0.183593,0.004 l -26.214845,1.33594 c -1.447381,0.0738 -2.561174,1.30648 -2.488281,2.7539 l 0.667969,13.10742 3.845703,75.4961 0.667969,13.10742 c 0.07379,1.44738 1.306478,2.56119 2.753906,2.48828 l 26.214845,-1.33594 c 1.447377,-0.0738 2.561167,-1.30648 2.488277,-2.75389 L 101.77148,259.54673 97.925782,184.05257 97.25781,170.9432 c -0.06953,-1.37673 -1.192087,-2.46518 -2.57031,-2.49228 z"
         inkscape:connector-curvature="0" /></clipPath><clipPath
       id="clip1"><path
         d="M 0,340.15625 H 481.89062 V 0 H 0 Z m 0,0"
         id="path1" /></clipPath><linearGradient
       inkscape:collect="always"
       xlink:href="#linearGradient135"
       id="linearGradient136"
       x1="21.425209"
       y1="179.28647"
       x2="334.96371"
       y2="110.55135"
       gradientUnits="userSpaceOnUse"
       gradientTransform="matrix(0.88313729,0,0,0.88313729,45.067345,-1.4698273)" /><linearGradient
       inkscape:collect="always"
       xlink:href="#linearGradient135"
       id="linearGradient2"
       gradientUnits="userSpaceOnUse"
       x1="21.425209"
       y1="179.28647"
       x2="334.96371"
       y2="110.55135"
       gradientTransform="matrix(0.88313729,0,0,0.88313729,46.916154,27.802978)" /><linearGradient
       inkscape:collect="always"
       xlink:href="#linearGradient135"
       id="linearGradient3"
       gradientUnits="userSpaceOnUse"
       x1="21.425209"
       y1="179.28647"
       x2="334.96371"
       y2="110.55135"
       gradientTransform="matrix(0.88313729,0,0,0.88313729,41.581198,-13.453459)" /><linearGradient
       inkscape:collect="always"
       xlink:href="#linearGradient135"
       id="linearGradient4"
       gradientUnits="userSpaceOnUse"
       x1="21.425209"
       y1="179.28647"
       x2="334.96371"
       y2="110.55135"
       gradientTransform="matrix(0.88243016,0.03533402,-0.03533402,0.88243016,45.364728,-15.069355)" /><linearGradient
       inkscape:collect="always"
       xlink:href="#linearGradient135"
       id="linearGradient30"
       gradientUnits="userSpaceOnUse"
       x1="21.425209"
       y1="179.28647"
       x2="334.96371"
       y2="110.55135"
       gradientTransform="matrix(0.8777572,0.09733329,-0.09733329,0.8777572,51.637411,-8.8592753)" /><linearGradient
       inkscape:collect="always"
       xlink:href="#linearGradient135"
       id="linearGradient33"
       gradientUnits="userSpaceOnUse"
       x1="21.425209"
       y1="179.28647"
       x2="334.96371"
       y2="110.55135"
       gradientTransform="matrix(0.88313729,0,0,0.88313729,45.067345,-1.4698273)" /><linearGradient
       inkscape:collect="always"
       xlink:href="#linearGradient135"
       id="linearGradient34"
       gradientUnits="userSpaceOnUse"
       x1="21.425209"
       y1="179.28647"
       x2="334.96371"
       y2="110.55135"
       gradientTransform="matrix(0.88313729,0,0,0.88313729,45.067345,-1.4698273)" /></defs><path
     style="display:inline;fill:#ffffff;fill-opacity:1;stroke:none;stroke-width:0.662353px;stroke-linecap:butt;stroke-linejoin:miter;stroke-opacity:1"
     d="m 200.73595,82.057747 -65.89345,75.113763 7.798,15.93027 28.63973,-11.37699 27.34802,38.65615 39.53371,11.48016 46.84351,-13.484 32.25403,-16.8741 22.46586,13.96592 41.0783,-8.51022 29.80013,21.88123 57.8463,-4.70486 3.04981,-49.88686 -7.61684,-25.97024 -37.2843,-28.656543 -105.69025,13.557933 c 0,0 -78.57436,-13.866073 -78.8825,-15.406743 -0.30813,-1.54067 -41.29006,-15.71487 -41.29006,-15.71487 z"
     id="path143"
     sodipodi:nodetypes="ccccccccccccccccsc"
     inkscape:label="Fill" /><path
     style="display:none;fill:#ffffff;fill-opacity:1;stroke:none;stroke-width:0.75px;stroke-linecap:butt;stroke-linejoin:miter;stroke-opacity:1"
     d="m 194.93934,94.205505 -121.323331,35.208025 9.819898,57.90796 29.996223,28.26495 15.72417,-18.28934 32.42954,-12.88247 30.96689,43.77139 44.76508,12.9993 55.94841,-7.7683 59.60202,9.98579 53.36422,-6.41668 3.63499,-11.93965 28.95947,9.42055 29.65729,-6.28036 -12.29482,-48.26049 36.71847,-33.38428 -42.21802,-32.44857 -119.67589,15.35201 c 0,0 -88.97186,-15.70092 -89.32077,-17.44546 -0.34891,-1.74455 -46.75384,-17.794375 -46.75384,-17.794375 z"
     id="path31"
     sodipodi:nodetypes="ccccccccccccccccccsc"
     inkscape:label="Fill"
     sodipodi:insensitive="true" /><g
     id="g21"
     inkscape:label="Haskell Outline"
     inkscape:highlight-color="#00ffff"
     transform="matrix(0.88313729,0,0,0.88313729,28.577749,-1.1386513)"><path
       id="path15"
       style="baseline-shift:baseline;display:inline;overflow:visible;opacity:1;vector-effect:none;fill:#ffffff;fill-opacity:1;stroke:none;stroke-opacity:1;enable-background:accumulate;stop-color:#000000;stop-opacity:1"
       inkscape:label="l1"
       d="m 447.98242,93.097656 c -7.60444,0.209155 -14.38185,6.750874 -15.00586,14.306644 -4.95516,31.42366 -10.07101,62.83641 -14.96875,94.27539 -0.71168,7.80178 5.44442,15.45271 13.15891,16.60462 6.46716,0.87306 12.86747,2.28279 19.38049,2.77886 7.78668,-0.10842 14.76898,-6.88405 15.23209,-14.63544 4.98712,-31.27785 10.0177,-62.54918 14.92968,-93.83789 0.764,-7.73253 -5.23003,-15.35607 -12.84379,-16.669405 -6.44644,-0.887338 -12.83345,-2.229377 -19.31675,-2.826098 -0.18867,0.0011 -0.37735,0.0022 -0.56602,0.0033 z" /><path
       id="path16"
       style="baseline-shift:baseline;display:inline;overflow:visible;opacity:1;vector-effect:none;fill:#ffffff;fill-opacity:1;stroke:none;stroke-opacity:1;enable-background:accumulate;stop-color:#000000;stop-opacity:1"
       inkscape:label="l2"
       d="m 491.00391,67.171875 c -6.88684,0.775022 -13.79786,1.465029 -20.62337,2.678324 -7.58873,2.044983 -12.67356,10.508064 -11.03484,18.173239 3.85608,30.989462 7.66753,61.985572 11.61524,92.962892 1.46632,7.60208 9.33854,13.18331 16.98414,12.31356 6.5385,-0.97604 13.16538,-1.39893 19.64221,-2.75463 7.43451,-2.25353 12.25716,-10.66269 10.58849,-18.22495 -3.84794,-30.92278 -7.64908,-61.85238 -11.58398,-92.763669 -1.42021,-7.111616 -8.34546,-12.59579 -15.58789,-12.384766 z" /><path
       id="path17"
       style="baseline-shift:baseline;display:inline;overflow:visible;opacity:1;vector-effect:none;fill:#ffffff;fill-opacity:1;stroke:none;stroke-opacity:1;enable-background:accumulate;stop-color:#000000;stop-opacity:1"
       inkscape:label="e"
       d="m 399.20898,82.412109 c -15.6434,0.375686 -30.68654,9.290609 -38.80414,22.623171 -6.71444,10.66263 -9.03253,24.16197 -5.59706,36.35106 3.55587,13.30448 13.26218,24.78058 25.75176,30.56546 11.02895,5.26154 24.20125,6.25797 35.71194,1.94859 10.12213,-3.70962 18.6593,-10.93231 25.06943,-19.4948 2.32321,-3.00246 4.33655,-6.51583 4.39542,-10.4134 0.23174,-6.16285 -3.43482,-12.2708 -8.99812,-14.94131 -0.2286,-0.32259 -1.43628,-0.50148 -0.95973,-0.92575 3.49499,-3.86366 6.01529,-8.96979 5.64943,-14.28529 -0.33732,-5.38003 -3.0522,-10.31222 -6.40217,-14.415206 -4.3085,-5.172075 -9.85456,-9.220707 -15.82189,-12.278475 -6.18011,-3.082943 -13.06844,-4.852685 -19.99487,-4.73405 z" /><path
       id="path18"
       style="baseline-shift:baseline;display:inline;overflow:visible;opacity:1;vector-effect:none;fill:#ffffff;fill-opacity:1;stroke:none;stroke-opacity:1;enable-background:accumulate;stop-color:#000000;stop-opacity:1"
       inkscape:label="k"
       d="m 299.75195,77.671875 c -3.86573,0.187413 -7.42215,1.849445 -11.00195,3.154297 -1.05216,0.357783 -2.40062,0.834127 -3.61344,1.263258 -3.72074,1.314839 -7.72717,2.645123 -10.37484,5.744554 -4.12164,4.662644 -5.17386,11.795715 -2.48498,17.422546 10.41761,28.90699 20.79081,57.82651 31.29748,86.7005 3.19257,7.1899 12.36238,10.88713 19.6761,8.06091 5.45522,-2.1278 11.12141,-3.74739 16.41179,-6.27646 3.62406,-2.12638 6.14982,-5.8864 7.09766,-9.93875 3.97321,3.3191 9.61918,4.57717 14.58494,3.01391 3.07335,-0.90586 5.88572,-2.49012 8.87906,-3.61114 3.07901,-1.33029 6.32269,-2.53306 8.89399,-4.75058 5.35343,-4.8627 6.61225,-13.61581 2.73318,-19.74512 -4.65686,-9.35231 -11.33353,-17.64419 -19.24352,-24.44613 2.24669,-2.44688 4.2354,-5.33405 4.71402,-8.69508 1.04576,-5.84369 -1.42915,-12.168 -6.2158,-15.69696 -3.58152,-3.17803 -6.88333,-6.72344 -10.87945,-9.39762 -6.5474,-3.767 -15.65078,-1.792026 -20.18908,4.20372 -2.17122,2.36329 -4.34245,4.72657 -6.51367,7.08985 -3.08626,-8.52692 -6.10991,-17.078878 -9.34571,-25.54883 -2.66632,-5.280925 -8.51145,-8.751691 -14.42578,-8.546875 z"
       sodipodi:nodetypes="ccccccccccccccccccccc" /><path
       id="path32"
       style="baseline-shift:baseline;display:inline;overflow:visible;opacity:1;vector-effect:none;fill:#ffffff;fill-opacity:1;stroke:none;stroke-opacity:1;enable-background:accumulate;stop-color:#000000;stop-opacity:1"
       inkscape:label="s"
       d="m 252.26758,55.492188 c -9.24912,0.218824 -18.59721,3.987307 -24.74472,11.027946 -8.00188,9.038832 -11.58892,21.895241 -9.14786,33.745486 0.69679,3.13745 1.95334,6.18813 3.54688,8.9336 -2.50735,1.94321 -4.13208,4.71563 -6.1944,7.07488 -2.27062,2.75379 -4.2382,5.98781 -4.47063,9.6358 -0.46541,5.37484 2.03217,10.72989 6.0091,14.27851 6.68218,6.75418 14.84655,12.37643 24.15397,14.71649 13.22665,3.44186 28.20561,-0.29596 37.96015,-9.9541 7.32512,-7.17481 11.59142,-17.67352 10.40779,-27.95524 -0.69198,-6.15028 -3.25975,-12.03862 -7.11794,-16.86079 2.0815,-1.967146 3.92942,-4.163743 5.94694,-6.194291 2.27439,-2.465708 3.8898,-5.668245 3.89544,-9.076299 0.16891,-4.43612 -1.7863,-8.685222 -4.53699,-12.069266 -5.02859,-6.518457 -12.02127,-11.354108 -19.5964,-14.462883 -5.1176,-1.982413 -10.62228,-2.97169 -16.11133,-2.839843 z"
       sodipodi:nodetypes="cccccccccccccccc" /><path
       id="path20"
       style="baseline-shift:baseline;display:inline;overflow:visible;opacity:1;vector-effect:none;fill:#ffffff;fill-opacity:1;stroke:none;stroke-opacity:1;enable-background:accumulate;stop-color:#000000;stop-opacity:1"
       inkscape:label="a"
       d="m 209.08398,86.867188 c -6.49738,0.374361 -13.02745,0.368229 -19.49585,1.120256 -2.61641,0.57603 -5.05698,1.878472 -7.0393,3.674665 -10.92197,-0.917574 -22.30418,2.602422 -30.37393,10.120891 -9.578,8.64187 -14.72469,21.96711 -13.29823,34.80504 0.77002,8.0185 3.34883,15.90733 7.70736,22.69746 4.10427,6.18875 10.05503,11.06269 16.80293,14.12093 8.31963,3.92705 18.06294,5.15756 26.96326,2.56534 2.06947,-0.57432 4.08306,-1.33976 6.03064,-2.24325 2.82441,2.58758 6.52991,4.33011 10.40703,4.31185 4.90244,0.12671 9.75397,-2.12504 12.93268,-5.83891 4.11036,-3.98133 8.50031,-7.80865 12.33585,-12.11469 4.70546,-6.27603 3.49351,-16.08454 -2.56693,-21.05171 -0.9067,-0.62621 -0.6945,-1.8956 -1.07171,-2.81823 -0.43305,-1.87127 -0.73536,-3.76933 -0.992,-5.67191 -0.096,-0.84744 -0.24425,-1.98239 -0.33234,-2.94401 -0.77707,-7.34683 -1.17816,-14.72433 -1.6074,-22.09749 -0.18767,-2.17509 -0.20435,-4.3778 -0.5837,-6.528811 -1.57869,-7.062807 -8.57231,-12.467047 -15.81836,-12.107421 z"
       sodipodi:nodetypes="ccccccccccccccccccc" /><path
       id="path21"
       style="baseline-shift:baseline;display:inline;overflow:visible;opacity:1;vector-effect:none;fill:#ffffff;fill-opacity:1;stroke:none;stroke-opacity:1;enable-background:accumulate;stop-color:#000000;stop-opacity:1"
       inkscape:label="H2"
       d="m 124.98106,57.342241 c -4.90962,-0.161858 -9.71831,1.044087 -14.57854,1.529507 -4.84972,0.69481 -9.75738,1.131794 -14.526041,2.283513 -7.28313,2.408173 -11.915565,10.752978 -10.203126,18.213553 l 3.707444,27.509786 c -4.036827,0.56351 -8.075298,1.11357 -12.107622,1.70723 -1.382898,-10.114774 -2.652237,-20.24894 -4.22683,-30.333609 -1.88683,-7.583908 -10.181468,-12.88078 -17.855483,-11.36 -7.957189,1.090269 -15.944863,2.001323 -23.866734,3.362542 -7.52821,1.894207 -12.698611,10.107603 -11.32696,17.716186 5.038516,37.022481 9.961619,74.061361 15.050652,111.076641 1.533539,7.63207 9.522574,13.17877 17.200105,12.18199 8.365362,-1.26883 16.799993,-2.0925 25.121638,-3.63543 7.532412,-2.16011 12.481545,-10.63781 10.794495,-18.26465 -1.242007,-9.07976 -2.448239,-18.16556 -3.676489,-27.24765 l 12.10396,-1.69192 c 1.38779,10.0431 2.59838,20.11493 4.232141,30.11953 2.00018,7.63013 10.48393,12.77472 18.17773,11.13862 8.0331,-1.19136 16.13713,-1.96153 24.11158,-3.51401 7.4679,-2.24707 12.31385,-10.71751 10.5839,-18.30068 -4.96453,-36.76059 -9.8839,-73.52811 -14.92516,-110.277692 -1.35988,-6.458664 -7.2142,-11.645921 -13.79066,-12.213457 z"
       sodipodi:nodetypes="cccccccccccccccccccccc" /></g><path
     id="path139"
     style="fill:#ffffff;fill-opacity:1;fill-rule:nonzero;stroke:none;stroke-width:0.290541"
     inkscape:label="Logo Outline"
     d="m 182.67926,132.03153 c -21.12861,2.54421 -42.25704,5.08987 -63.38581,7.63272 -3.70121,0.44545 -4.77011,3.1307 -2.3873,5.99769 12.14645,14.61456 24.29547,29.22699 36.4431,43.84057 2.38304,2.8668 2.98995,7.90704 1.35571,11.25766 -8.32863,17.07594 -16.65612,34.15242 -24.98571,51.22789 -1.63442,3.35053 0.0409,5.70489 3.74199,5.25868 21.40146,-2.58016 42.80297,-5.15983 64.20447,-7.73968 3.70112,-0.44615 8.02619,-3.52411 9.66015,-6.87487 2.17159,-4.45328 4.34302,-8.90665 6.51451,-13.35999 1.63388,-3.35079 4.89058,-3.74336 7.27386,-0.87676 3.16982,3.81264 6.33955,7.62537 9.50952,11.43789 2.3834,2.8665 7.31596,4.82764 11.01701,4.38081 10.665,-1.28759 21.33022,-2.57338 31.99556,-3.85815 3.70117,-0.44585 4.77036,-3.13168 2.3876,-5.99871 -4.55152,-5.47655 -9.10419,-10.95215 -13.65638,-16.42815 -2.38311,-2.86674 -1.31435,-5.55164 2.38686,-5.99713 4.65781,-0.56063 9.31559,-1.12158 13.97347,-1.68163 3.70126,-0.44504 6.34062,-3.80547 5.89495,-7.50666 -1.84799,-15.34731 -3.69706,-30.69449 -5.54336,-46.04201 -0.44526,-3.70123 -3.80638,-6.34006 -7.50752,-5.89397 -17.46331,2.10484 -34.92664,4.2095 -52.38997,6.31426 -3.70114,0.44608 -8.63381,-1.5159 -11.01742,-4.38223 -4.55239,-5.47431 -9.10474,-10.94865 -13.65717,-16.42292 -2.38363,-2.86631 -4.67887,-5.1462 -5.12652,-5.09219 l 0,-4e-5 z"
     inkscape:highlight-color="#ffea00"
     transform="matrix(0.84228702,0.26548833,-0.26548833,0.84228702,93.283074,-4.4078063)"
     inkscape:original-d="m 189.38086,131.22461 c -25.59639,3.08176 -51.19244,6.16631 -76.78906,9.24609 15.02194,18.076 30.04852,36.14815 45.07226,54.22266 -10.30171,21.1203 -20.60111,42.24174 -30.90429,63.36133 25.86909,-3.11891 51.73827,-6.23701 77.60742,-9.35547 4.14433,-8.49783 8.28768,-16.99613 12.43164,-25.49414 6.04698,7.27269 12.09309,14.54612 18.14062,21.81836 15.13242,-1.82808 30.26533,-3.65221 45.39844,-5.47461 -7.4263,-8.93858 -14.85707,-17.87345 -22.28516,-26.81055 9.1257,-1.09724 18.25099,-2.19793 27.37696,-3.29297 -2.38545,-19.8151 -4.77362,-39.62987 -7.15625,-59.44531 -21.93097,2.64338 -43.86198,5.28643 -65.79297,7.92969 -7.42971,-8.93423 -14.85924,-17.8686 -22.28906,-26.80274 -0.27019,0.0326 -0.54037,0.0651 -0.81055,0.0977 z"
     inkscape:path-effect="#path-effect142"
     sodipodi:nodetypes="sccccccccccccss"
     inkscape:transform-center-x="8.6645553"
     inkscape:transform-center-y="-13.582274" /><g
     id="g12"
     inkscape:label="Kana Outline"
     inkscape:highlight-color="#00ff00"
     transform="translate(-168.58466,-21.864093)"
     sodipodi:insensitive="true"
     style="display:none"><path
       id="path9"
       style="baseline-shift:baseline;display:inline;overflow:visible;opacity:1;vector-effect:none;fill:#ffffff;enable-background:accumulate;stop-color:#000000;stop-opacity:1"
       inkscape:label="ケ"
       d="m 426.56641,175.3125 c -2.13548,0.0544 -4.13654,1.69081 -4.43363,3.83934 -1.72656,6.31596 -4.28451,12.45419 -8.07521,17.82144 -0.95489,1.44664 -2.30122,2.82876 -2.28023,4.68102 -0.0967,1.99733 1.03418,3.92214 2.73731,4.93424 2.33153,1.70868 4.5458,3.59274 6.97175,5.16318 2.39194,1.2614 5.59777,0.20868 6.89967,-2.13105 1.67155,-2.31589 3.24863,-4.70374 4.65104,-7.19294 0.83984,-0.10937 1.67969,-0.21875 2.51953,-0.32812 -0.69914,4.98861 -2.3607,9.84398 -4.80076,14.24634 -0.96591,1.47816 -1.52775,3.33003 -0.95478,5.06402 0.51639,1.85743 2.18962,2.98244 3.70826,3.98448 2.02948,1.40093 3.96469,2.95759 6.08525,4.21502 2.44787,1.19824 5.67046,0.0132 6.84117,-2.42965 3.86664,-6.11348 6.16777,-13.09088 7.62006,-20.1399 0.53374,-2.69701 0.88725,-5.4366 0.92072,-8.18836 2.44933,-0.62536 4.93303,-1.22791 7.25692,-2.22985 2.36564,-1.28011 3.26779,-4.49956 2.08955,-6.88221 -1.04123,-2.7685 -1.88219,-5.62261 -3.07655,-8.32721 -1.2896,-2.30211 -4.39879,-3.18393 -6.7758,-2.1356 -3.27203,1.01668 -6.67195,1.75636 -9.93781,2.32329 -1.29563,0.18807 -2.69015,0.50534 -3.9274,0.57971 -0.24194,-2.1254 -1.99909,-4.07201 -4.02149,-4.4668 -3.00382,-0.77498 -5.96872,-1.72806 -9.00192,-2.37043 -0.33704,-0.0397 -0.67694,-0.0355 -1.01565,-0.03 z" /><path
       id="path10"
       style="baseline-shift:baseline;display:inline;overflow:visible;opacity:1;vector-effect:none;fill:#ffffff;enable-background:accumulate;stop-color:#000000;stop-opacity:1"
       inkscape:label="ハ"
       d="m 340.85742,205.06836 c -1.74286,0.12952 -3.07448,1.39678 -4.58972,2.12388 -1.96803,1.18489 -4.10056,2.13461 -5.90247,3.57143 -1.58386,-1.16372 -3.04468,-2.54539 -4.81054,-3.42969 -2.62718,-1.11622 -5.85828,-0.003 -7.42829,2.33406 -4.7947,5.85168 -10.96662,10.45883 -17.6438,13.95246 -2.17721,1.13025 -3.57806,3.60687 -3.24224,6.06278 0.17882,1.93318 1.4645,3.48419 2.19879,5.22248 0.8088,1.49726 1.42299,3.13917 2.51861,4.4556 1.93648,2.15346 5.45569,2.49919 7.8174,0.84668 8.29256,-4.44624 15.93205,-10.22424 22.09007,-17.36624 2.56626,5.64806 4.91095,11.42464 6.56079,17.41122 0.42623,1.86677 0.71663,4.00364 2.26929,5.35245 1.44953,1.4241 3.58491,2.00713 5.57084,1.6607 2.44076,-0.22603 4.91978,-0.19564 7.33072,-0.65071 2.93971,-0.77363 4.87308,-4.08431 4.10939,-7.02803 -1.22324,-8.39576 -4.47017,-16.33057 -8.06564,-23.95852 -1.34512,-2.7468 -2.67181,-5.52273 -4.30983,-8.10649 -1.0468,-1.39516 -2.65889,-2.54465 -4.47337,-2.45406 z" /><path
       id="path11"
       style="baseline-shift:baseline;display:inline;overflow:visible;opacity:1;vector-effect:none;fill:#ffffff;enable-background:accumulate;stop-color:#000000;stop-opacity:1"
       inkscape:label="ル"
       d="m 503.93988,217.74869 c -3.30361,-1.06842 -6.57643,-2.26143 -9.92132,-3.18359 -0.50931,-0.0815 -1.03226,-0.0789 -1.54186,-5.8e-4 0.24846,-0.65746 0.42313,-1.2716 -0.50086,-1.24087 -4.44046,-1.11471 -8.85416,-2.35661 -13.31532,-3.37539 -2.73208,-0.36271 -5.40797,1.80388 -5.79936,4.49883 -1.30626,4.82371 -2.72106,9.68024 -4.69572,14.21209 -0.79179,1.82022 -1.60912,3.46637 -2.75806,5.10911 -1.37887,1.99201 -3.39796,3.44146 -5.61339,4.37331 -1.59049,0.62834 -3.06022,1.78547 -3.57744,3.47437 -0.61455,1.74488 -0.0768,3.62717 0.79587,5.17928 1.14644,2.42646 2.12074,4.94478 3.41469,7.29502 1.49642,2.24412 4.80973,2.8692 7.06944,1.4336 5.08607,-2.40186 9.81624,-5.7929 13.11713,-10.405 0.35366,-0.47253 0.69545,-0.95443 1.0205,-1.44716 -0.64107,3.42697 -1.22605,6.87401 -1.60185,10.33829 -0.0338,2.62479 1.44548,5.07557 3.53529,6.5902 1.84009,1.607 3.5314,3.6952 6.05779,4.17744 1.71148,0.45043 3.47913,0.10934 5.14974,-0.33618 5.12142,-1.06087 10.15251,-2.54295 15.01232,-4.47914 1.96814,-0.78384 3.99303,-1.47969 5.85548,-2.49038 2.23173,-1.48503 2.84829,-4.72341 1.52661,-7.01162 -1.18795,-2.67553 -2.18159,-5.44749 -3.51829,-8.05072 -1.45677,-2.27702 -4.71999,-2.93881 -7.04066,-1.63588 -1.76444,0.72653 -3.53356,1.44273 -5.32534,2.09948 1.23872,-6.0344 2.85122,-11.92325 4.70293,-17.796 0.53078,-1.48269 0.94045,-3.12339 0.37285,-4.66217 -0.3762,-1.17965 -1.25231,-2.21757 -2.42117,-2.66634 z" /><path
       id="path12"
       style="baseline-shift:baseline;display:inline;overflow:visible;opacity:1;vector-effect:none;fill:#ffffff;enable-background:accumulate;stop-color:#000000;stop-opacity:1"
       inkscape:label="ス"
       d="m 392.625,183.05078 c -3.37674,0.52678 -6.66298,1.3523 -10.0135,2.01601 -5.6284,1.18697 -11.23625,2.29497 -16.82083,3.59401 -2.63493,0.96575 -3.99274,4.24831 -3.02539,6.84124 0.52458,2.34909 0.91147,4.71488 1.48985,6.98667 0.24484,1.34253 0.79343,2.70201 1.96627,3.49343 1.5023,1.15692 3.57655,1.44012 5.35327,0.80504 2.5323,-0.52982 5.06465,-1.05939 7.59721,-1.58796 -1.44443,2.32841 -2.74172,4.81181 -4.81495,6.66235 -3.15541,2.9412 -6.77108,5.3227 -10.42694,7.58805 -1.13276,0.64661 -2.23097,1.49131 -2.66729,2.7744 -0.73007,1.82641 -0.40786,3.98868 0.78147,5.5475 1.50533,2.55701 2.71425,5.3108 4.51049,7.68243 1.89684,1.91826 5.21012,1.89151 7.24772,0.2049 4.67997,-2.74351 9.13635,-5.8847 13.15856,-9.5319 3.55811,2.54338 6.81125,5.47857 9.93273,8.53224 2.17871,1.78253 5.70556,1.28733 7.4471,-0.88044 2.16959,-2.10762 4.57548,-3.99581 6.52346,-6.31624 1.42499,-2.27122 0.67409,-5.5069 -1.44249,-7.08817 -3.68785,-3.78271 -7.66996,-7.29668 -12.05455,-10.2552 1.96766,-5.69315 2.8874,-11.84279 1.91934,-17.829 -0.35968,-1.777 -0.65743,-3.56983 -1.10662,-5.32682 -0.4186,-1.76796 -1.77986,-3.24616 -3.53547,-3.74568 -0.65153,-0.21225 -1.34192,-0.27841 -2.01944,-0.16686 z" /></g><g
     id="g30"
     inkscape:label="Kana Outline"
     inkscape:highlight-color="#00ff00"
     transform="matrix(1.0443107,0,0,1.0443107,-128.91987,-25.105542)"><path
       id="path29"
       style="baseline-shift:baseline;display:inline;overflow:visible;opacity:1;vector-effect:none;fill:#ffffff;enable-background:accumulate;stop-color:#000000;stop-opacity:1"
       inkscape:label="ル"
       d="m 553.54459,188.6275 c -3.15632,2.33037 -4.14659,6.96703 -2.421,10.45239 1.308,3.76953 2.59839,7.55508 3.5028,11.44538 0.29843,1.27088 0.59003,2.78876 0.78759,4.17205 0.47474,2.64902 0.30897,5.55203 -1.22601,7.8484 -1.24547,1.9611 -2.16898,4.28092 -1.77033,6.64109 0.42316,2.95447 2.59947,5.40256 5.23842,6.66257 2.6827,1.50356 5.18427,3.39079 8.07649,4.4818 3.89867,1.1422 8.34447,-1.14488 9.8741,-4.86811 1.51457,-2.68779 2.77225,-5.52811 3.64893,-8.48859 1.80975,3.50492 5.77376,5.44011 9.61422,5.54911 2.9119,0.47183 6.07896,0.94887 8.83667,-0.41396 2.95761,-1.2443 4.81327,-3.9945 6.97449,-6.22291 4.20295,-4.71608 7.88127,-9.88828 11.1652,-15.27775 1.54407,-2.80677 1.09246,-6.45725 -0.92137,-8.91211 -1.03262,-1.39784 -2.58859,-2.20998 -4.04368,-3.07971 -2.34027,-1.46645 -4.61415,-3.17203 -7.20293,-4.21633 -3.64481,-1.14128 -7.85562,0.71843 -9.68945,4.01884 -1.70199,-4.40152 -3.17095,-9.02749 -4.61555,-13.57914 -1.18704,-3.16186 -4.45716,-5.62786 -7.91485,-5.23735 -1.88512,0.25092 -3.64862,1.02109 -5.48894,1.47165 -1.83015,0.54 -3.67696,1.0473 -5.46267,1.71721 -1.35788,-0.52975 -2.70634,0.19329 -3.94504,0.68744 -4.08088,1.54193 -8.24159,2.89304 -12.23745,4.64446 -0.27029,0.15096 -0.53004,0.32028 -0.77962,0.5036 z" /><path
       id="path27"
       style="baseline-shift:baseline;display:inline;overflow:visible;opacity:1;vector-effect:none;fill:#ffffff;enable-background:accumulate;stop-color:#000000;stop-opacity:1"
       inkscape:label="ケ"
       d="m 515.55107,201.4707 c -3.60267,0.0533 -6.87436,2.97309 -7.37178,6.53593 -1.76655,6.3666 -4.51486,12.50212 -8.49172,17.80273 -1.58755,2.06094 -2.30483,4.83819 -1.55112,7.36963 0.61654,2.36775 2.36093,4.27574 4.41225,5.52793 2.37957,1.74381 4.59848,3.75802 7.22112,5.13488 2.65665,1.14159 5.86991,0.59758 8.14453,-1.13477 -0.88515,1.77094 -2.10145,3.46949 -2.21289,5.51563 -0.30488,2.73815 0.88434,5.55991 3.07318,7.2382 1.75724,1.45189 3.72549,2.62064 5.53278,4.0079 1.90578,1.39708 4.02997,2.88316 6.50848,2.76271 3.18035,-10e-4 6.23736,-1.97167 7.57317,-4.85587 4.43275,-7.27797 6.95576,-15.58188 8.25184,-23.96349 0.12594,-1.01852 0.24895,-2.03799 0.31445,-3.0625 2.34272,-0.65473 4.8056,-1.2183 6.83203,-2.62109 3.0833,-2.36341 3.98018,-6.9693 2.23219,-10.39686 -1.11463,-2.93291 -1.90049,-6.02235 -3.42164,-8.78088 -2.17484,-3.25211 -6.76009,-4.41766 -10.30493,-2.87416 -3.46292,1.05196 -7.01728,1.77075 -10.58569,2.35658 -1.25588,-2.30671 -3.63323,-3.88903 -6.20744,-4.31513 -2.98456,-0.75971 -5.91967,-1.79114 -8.97278,-2.232 -0.32493,-0.0234 -0.65057,-0.0194 -0.97603,-0.0154 z" /><path
       id="path28"
       style="baseline-shift:baseline;display:inline;overflow:visible;opacity:1;vector-effect:none;fill:#ffffff;enable-background:accumulate;stop-color:#000000;stop-opacity:1"
       inkscape:label="ハ"
       d="m 440.73917,184.16289 c -2.5359,0.0642 -4.55051,1.76379 -6.66929,2.87307 -1.23643,0.70205 -2.49561,1.3647 -3.70962,2.10545 -2.01265,-1.65415 -4.37699,-3.2435 -7.09719,-3.1443 -3.19293,-0.0356 -6.21997,1.76377 -7.99216,4.37243 -4.641,5.53466 -10.64575,9.75816 -16.99966,13.10671 -3.58879,2.23158 -5.21465,7.15622 -3.49542,11.04948 0.82779,1.97783 1.97448,3.80206 2.84867,5.75987 1.0738,2.27135 2.69616,4.46738 5.1342,5.36948 2.92153,1.22799 6.40384,0.74035 8.97932,-1.06511 6.99613,-3.82242 13.51646,-8.56639 19.11443,-14.25521 2.08276,4.91035 3.9606,9.93336 5.12109,15.14844 0.60259,2.23263 1.95376,4.28164 3.94727,5.5 2.18413,1.43113 4.91592,1.71059 7.44566,1.29202 2.69701,-0.23771 5.50832,-0.0989 8.0756,-1.07489 3.91812,-1.668 6.17806,-6.38347 5.04478,-10.48656 -1.60412,-10.06911 -5.78664,-19.48994 -10.35901,-28.52354 -1.37003,-2.55861 -2.67337,-5.42907 -5.30664,-6.92773 -1.22653,-0.72942 -2.64975,-1.14711 -4.08203,-1.09961 z" /><path
       id="path30"
       style="baseline-shift:baseline;display:inline;overflow:visible;opacity:1;vector-effect:none;fill:#ffffff;enable-background:accumulate;stop-color:#000000;stop-opacity:1"
       inkscape:label="ス"
       d="m 502.20715,169.67537 c -4.24183,-1.16221 -8.61225,-1.74189 -12.9116,-2.64387 -5.13222,-0.97194 -10.25345,-2.03162 -15.41426,-2.83115 -4.34712,-0.18031 -8.26456,3.64768 -8.4813,7.93653 -0.51459,3.03796 -1.38754,6.05704 -1.48823,9.16849 0.1255,4.07616 3.77903,7.50003 7.76389,7.82171 -4.39727,1.6509 -9.07341,2.27416 -13.66071,3.15314 -4.1361,1.09956 -6.63443,5.81797 -5.70534,9.90636 0.52017,3.29948 0.44141,6.73533 1.55651,9.91471 1.6479,3.7011 6.226,5.57373 10.05766,4.46769 4.62221,-0.65062 9.20643,-1.62057 13.65846,-3.03047 1.81564,3.17621 3.24778,6.50242 4.75119,9.79857 2.15439,3.71287 7.36686,5.02454 11.10879,3.01948 3.05892,-1.2194 6.34889,-2.00382 9.13176,-3.81534 3.18074,-2.49605 3.8968,-7.37063 1.90989,-10.82215 -1.69359,-4.24612 -3.70591,-8.36786 -6.05576,-12.28995 4.23464,-5.18701 7.35352,-11.38317 8.40313,-18.03288 0.52223,-2.39114 1.04404,-5.00107 -0.0388,-7.32327 -0.85111,-2.00081 -2.53493,-3.65654 -4.58527,-4.3976 z"
       sodipodi:nodetypes="ccccccccccccccccccc" /></g><g
     id="g15"
     inkscape:label="Haskell"
     inkscape:highlight-color="#00ffff"><path
       style="baseline-shift:baseline;display:inline;overflow:visible;opacity:1;vector-effect:none;fill:url(#linearGradient33);fill-opacity:1;stroke:none;stroke-width:0.883137;stroke-opacity:1;enable-background:accumulate;stop-color:#000000;stop-opacity:1"
       d="m 421.5805,94.458767 -13.23883,82.905453 c -0.28842,1.80617 0.94193,3.50418 2.74809,3.79265 l 14.38945,2.29818 c 1.80613,0.28847 3.50413,-0.94187 3.79255,-2.74801 l 13.23883,-82.905463 c 0.28842,-1.80616 -0.94193,-3.50417 -2.7481,-3.79264 l -14.38945,-2.29819 c -1.80613,-0.28847 -3.50413,0.94188 -3.79254,2.74802 z"
       id="path161"
       inkscape:label="l1" /><path
       style="baseline-shift:baseline;display:inline;overflow:visible;opacity:1;vector-effect:none;fill:url(#linearGradient34);fill-opacity:1;stroke:none;stroke-width:0.883137;stroke-opacity:1;enable-background:accumulate;stop-color:#000000;stop-opacity:1"
       d="m 461.97516,68.804458 -14.46172,1.793931 c -1.81509,0.225156 -3.10394,1.879164 -2.87865,3.694235 l 10.15565,81.821276 c 0.2253,1.81514 1.87935,3.10401 3.6945,2.87883 l 14.46046,-1.79388 c 1.81509,-0.22516 3.10395,-1.87917 2.87869,-3.69426 L 465.66962,71.68332 c -0.22527,-1.815143 -1.8793,-3.104026 -3.69446,-2.878862 z"
       id="path157"
       inkscape:label="l2" /><path
       style="baseline-shift:baseline;display:inline;overflow:visible;opacity:1;vector-effect:none;fill:url(#linearGradient136);fill-opacity:1;stroke:none;stroke-width:0.883137;stroke-opacity:1;enable-background:accumulate;stop-color:#000000;stop-opacity:1"
       d="m 382.64761,82.250967 c -1.74461,-0.0676 -3.56089,0.0433 -5.43336,0.38551 -12.15614,2.22169 -21.18261,10.89255 -24.72051,21.869303 -4.29936,13.33925 1.7417,28.34032 14.69078,35.59629 6.1982,3.47314 14.34338,5.42749 22.80978,3.19922 7.68277,-2.02202 15.00015,-7.39114 21.08252,-16.08856 1.04808,-1.49868 0.56201,-3.54731 -0.99189,-4.51207 l -9.37926,-5.82322 c -1.5539,-0.96476 -3.58194,-0.47573 -4.65567,1.00448 -3.99064,5.50129 -7.61482,7.56475 -10.55245,8.33791 -3.38371,0.89055 -5.47524,1.05896 -9.67786,-1.52652 -5.43302,-3.34244 -8.76372,-8.82567 -7.00386,-14.74253 3.84784,-12.936953 16.15805,-9.92333 16.71089,-9.7546 -2.73765,2.6995 -6.87067,6.03664 -9.54506,8.12963 -1.44025,1.12715 -1.59214,3.08326 -0.31844,4.39591 l 6.85238,7.06195 c 1.2737,1.31265 3.45457,1.43877 4.87127,0.28191 4.40247,-3.59499 13.24377,-10.81231 16.56859,-13.50936 0,0 3.79651,-3.25914 3.92367,-6.1397 0.10998,-2.491533 -2.63389,-6.287173 -2.63389,-6.287173 -1.74497,-2.14689 -4.66105,-5.11453 -9.30012,-7.82664 -3.47929,-2.03408 -8.06366,-3.84889 -13.29751,-4.05174 z"
       id="path159"
       inkscape:label="e" /><path
       id="path162"
       style="baseline-shift:baseline;display:inline;overflow:visible;opacity:1;vector-effect:none;fill:url(#linearGradient3);fill-opacity:1;stroke:none;stroke-width:0.883137;stroke-opacity:1;enable-background:accumulate;stop-color:#000000;stop-opacity:1"
       d="m 293.52308,78.048274 c -0.32549,0.01434 -0.65405,0.07658 -0.97671,0.192762 l -12.05043,4.338921 c -1.72091,0.61959 -2.61307,2.5171 -1.99352,4.23803 l 27.62348,76.732033 c 0.61954,1.7209 2.51713,2.6144 4.23802,1.99482 l 12.05042,-4.33893 c 1.72092,-0.61958 2.61306,-2.51707 1.99354,-4.23802 l -7.40491,-20.56916 24.72698,-26.91068 c 1.23754,-1.34683 1.15015,-3.44157 -0.19663,-4.67916 l -8.12935,-7.469593 c -1.34673,-1.23755 -3.44169,-1.14889 -4.67916,0.19793 L 310.25008,117.64456 296.78439,80.235847 c -0.50334,-1.398234 -1.85088,-2.249711 -3.26131,-2.187573 z m 41.97662,43.284506 c -0.9954,0.009 -1.98987,0.41216 -2.67916,1.17594 l -5.02458,5.5679 c -1.22542,1.35783 -1.26963,3.59867 -0.0957,5.00129 5.33428,6.37355 9.33704,11.16353 12.96505,18.76839 0.78745,1.65062 2.72187,2.44265 4.4062,1.72962 l 10.16685,-4.304 c 1.68433,-0.71303 2.47953,-2.66165 1.68822,-4.31047 -5.27141,-10.98381 -11.99274,-17.32211 -19.24445,-22.91457 -0.63362,-0.48865 -1.4082,-0.72098 -2.1824,-0.7141 z"
       inkscape:label="k"
       sodipodi:nodetypes="sccccccccsccsccssccsssssss" /><path
       style="baseline-shift:baseline;display:inline;overflow:visible;opacity:1;vector-effect:none;fill:url(#linearGradient4);fill-opacity:1;stroke:none;stroke-width:0.883137;stroke-opacity:1;enable-background:accumulate;stop-color:#000000;stop-opacity:1"
       d="m 252.09007,58.454431 c -3.05675,0.02996 -5.95739,0.631698 -8.67602,1.817328 -9.66621,4.215567 -13.14787,16.647061 -11.83191,23.887208 1.31594,7.24015 5.27727,9.43014 9.86571,12.54583 4.58843,3.1157 10.99577,2.27775 10.2354,8.301103 -0.76036,6.02336 -13.80189,0.45723 -17.06333,-1.48207 -1.55881,-0.9556 -3.1966,-0.62554 -4.21893,0.89111 l -4.09299,5.09512 c -1.14546,1.42592 -0.77319,3.3457 1.35605,5.44179 5.51922,5.43327 15.5627,14.13564 29.94569,10.26185 10.23185,-2.75575 18.07951,-12.6502 16.17097,-23.12437 -0.9899,-5.432603 -4.59173,-9.682473 -8.02422,-12.132803 -3.43247,-2.45034 -6.81234,-3.76194 -9.65031,-4.9554 -2.83797,-1.19347 -2.38836,-1.06216 -3.47699,-1.8418 -2.19421,-1.57138 -0.86451,-4.854846 0.5927,-5.49037 1.13475,-0.49488 4.55022,-3.355976 13.1632,2.49868 1.51246,1.0281 3.43061,0.6271 4.69203,-0.69736 l 4.96065,-5.208568 c 1.26142,-1.324458 -1.47614,-5.452976 -5.50153,-8.753672 -4.0254,-3.300695 -9.09245,-6.202415 -15.33757,-6.892881 -1.05247,-0.116384 -2.08969,-0.170718 -3.1086,-0.16073 z"
       id="path156"
       inkscape:label="s"
       sodipodi:nodetypes="sszzzscssssssssssszsss" /><path
       style="baseline-shift:baseline;display:inline;overflow:visible;opacity:1;vector-effect:none;fill:url(#linearGradient2);fill-opacity:1;stroke:none;stroke-width:0.883137;stroke-opacity:1;enable-background:accumulate;stop-color:#000000;stop-opacity:1"
       d="m 213.51175,86.172977 -14.55746,0.64036 c -1.82727,0.0804 -3.24161,1.62676 -3.15052,3.45353 0.03,0.60127 0.06,1.20449 0.0901,1.84127 -2.83643,-1.80968 -14.21807,-3.80776 -23.03229,2.28848 -8.48285,5.867073 -12.98034,16.211683 -10.62222,27.434613 2.48214,11.81313 7.92706,17.62603 16.44239,21.15001 8.51532,3.52398 17.28105,2.23661 25.07498,-4.33633 1.28825,1.67565 3.55403,3.98116 5.44226,5.88182 1.28878,1.29726 3.39757,1.33653 4.72243,0.0755 l 10.5554,-10.04667 c 1.32486,-1.26099 1.37823,-3.3594 0.0728,-4.64037 -2.63884,-2.58942 -3.10917,-2.87513 -4.20173,-6.73212 -1.28913,-4.55088 -2.40117,-13.21662 -3.3768,-33.847393 -0.0864,-1.82695 -1.63203,-3.2431 -3.4593,-3.16272 z m -23.16771,21.004993 c 1.9784,-0.0458 3.96052,0.46225 6.53039,1.63518 0.50205,6.2589 1.10291,11.15074 1.92366,15.29233 -3.00644,2.68753 -6.11573,3.6442 -9.20955,3.34411 -3.09381,-0.30009 -7.51803,-3.32025 -8.25742,-9.1604 -0.73939,-5.84014 1.83419,-9.37973 5.32988,-10.45405 1.31087,-0.40287 2.496,-0.62967 3.68304,-0.65717 z"
       id="path2"
       inkscape:label="a" /><path
       id="path155"
       style="baseline-shift:baseline;display:inline;overflow:visible;opacity:1;vector-effect:none;fill:url(#linearGradient30);fill-opacity:1;stroke:none;stroke-width:0.883137;stroke-opacity:1;enable-background:accumulate;stop-color:#000000;stop-opacity:1"
       inkscape:label="H2"
       d="m 137.7939,60.031268 c -0.21956,-0.01492 -0.44357,-0.0086 -0.67015,0.02201 l -19.69462,2.655392 c -1.81265,0.244309 -3.08343,1.911357 -2.83911,3.724002 l 4.832,35.854388 -25.591987,3.56986 c -1.811511,0.25267 -3.076314,1.92591 -2.823677,3.73742 l 2.745537,19.67988 c 0.252636,1.81151 1.926056,3.07501 3.737566,2.82239 l 25.470281,-3.55211 4.7397,35.16082 c 0.24432,1.81269 1.91117,3.08462 3.72385,2.84039 l 19.69448,-2.6541 c 1.81264,-0.24422 3.08338,-1.91137 2.8391,-3.724 L 140.8476,62.893667 c -0.21374,-1.586063 -1.51686,-2.75793 -3.0537,-2.862399 z m -57.893456,8.299927 c -0.219549,-0.01492 -0.443572,-0.0086 -0.670155,0.02201 l -19.691898,2.654392 c -1.812654,0.244266 -3.083374,1.911346 -2.839109,3.724001 l 13.107986,97.273782 c 0.244263,1.81262 1.911376,3.08343 3.724,2.83911 l 19.693044,-2.65297 c 1.812655,-0.24433 3.083547,-1.91262 2.839247,-3.72528 L 82.954148,71.193594 C 82.740392,69.607518 81.43729,68.435695 79.900444,68.331195 Z"
       sodipodi:nodetypes="sccccccccccccccssccccccccs" /></g><g
     id="g8"
     inkscape:label="Kana"
     inkscape:highlight-color="#00ff00"
     transform="matrix(1.0443107,0,0,1.0443107,-128.91987,-25.105542)"><path
       id="path5"
       style="baseline-shift:baseline;display:inline;overflow:visible;opacity:1;vector-effect:none;fill:#7a3677;enable-background:accumulate;stop-color:#000000;stop-opacity:1"
       d="m 582.24469,187.03822 -9.58596,2.84304 c 4.72937,15.93942 9.26718,25.8951 13.76618,34.77115 l 8.18619,1.07245 c 3.88792,-4.34924 7.1339,-6.79648 14.93995,-19.0835 l -8.44254,-5.36177 c -4.20268,6.61518 -6.677,9.78319 -8.83098,12.21881 -3.28801,-7.0026 -6.55238,-14.72997 -10.03284,-26.46018 z m -15.30932,4.29144 -9.386,3.44995 c 4.22491,11.49618 5.6381,18.3948 5.59081,22.8203 -0.0473,4.42551 -1.219,6.7135 -3.57691,10.64129 l 8.57459,5.14729 c 2.59288,-4.31921 4.93104,-9.16291 5.0007,-15.68175 0.0697,-6.51884 -1.79344,-14.37792 -6.20319,-26.37708 z"
       inkscape:label="ル"
       sodipodi:nodetypes="ccccccccccsccsc" /><path
       style="baseline-shift:baseline;display:inline;overflow:visible;opacity:1;vector-effect:none;fill:#7a3677;enable-background:accumulate;stop-color:#000000;stop-opacity:1"
       d="m 515.7427,208.82666 c -2.3164,8.48901 -5.21412,15.12943 -10.70508,22.3667 l 7.96582,6.04541 c 2.47278,-3.25921 4.52532,-6.50616 6.25928,-9.81299 2.14855,-0.31881 5.90776,-0.75169 10.12646,-1.3374 0.16634,2.67284 -0.2014,6.58442 -1.18359,10.40185 -1.31844,5.12433 -3.6274,10.28029 -5.36573,12.71924 l 8.14307,5.80371 c 2.94573,-4.13299 5.32665,-9.89567 6.90527,-16.03125 1.25265,-4.86861 2.07518,-9.84308 1.46924,-14.53711 3.49131,-0.70372 7.00456,-1.58823 10.26563,-2.75097 l -3.35889,-9.42041 c -4.70815,1.6787 -10.96096,2.85601 -16.60547,3.67529 -2.08199,0.30219 -4.05098,0.55123 -5.86523,0.77637 0.5781,-1.72065 1.10566,-3.47349 1.59521,-5.26758 z"
       id="path8"
       inkscape:label="ケ"
       sodipodi:nodetypes="cccccsccscccsccc" /><path
       style="baseline-shift:baseline;display:inline;overflow:visible;opacity:1;vector-effect:none;fill:#7a3677;enable-background:accumulate;stop-color:#000000;stop-opacity:1"
       d="m 500.09476,176.73626 -4.93587,-0.94527 c -7.34083,-1.40641 -14.68074,-2.81167 -22.02157,-4.21809 l -1.88296,9.81937 c 5.39945,1.03446 10.79891,2.07098 16.19836,3.10545 -0.95363,1.72729 -2.14906,3.41523 -3.52634,4.92796 -2.64414,2.90419 -5.88276,5.15147 -7.62091,5.92146 -5.65532,2.50533 -13.27181,3.75842 -16.73815,4.14757 l 1.11594,9.93671 c 4.05306,-0.45503 12.24548,-1.64964 19.67433,-4.94064 0.0481,-0.0213 0.0958,-0.0419 0.14405,-0.0636 2.40361,2.76162 6.40337,10.05619 8.44396,15.6035 l 9.38543,-3.45267 c -2.271,-6.17365 -5.64698,-13.08124 -9.54857,-17.85068 0.85898,-0.79815 1.70668,-1.65589 2.53803,-2.569 3.51628,-3.86211 6.6702,-8.73173 7.80241,-14.49088 z"
       id="path73"
       inkscape:label="ス" /><path
       id="path7"
       style="baseline-shift:baseline;display:inline;overflow:visible;opacity:1;vector-effect:none;fill:#7a3677;enable-background:accumulate;stop-color:#000000;stop-opacity:1"
       d="m 441.26163,191.56279 -8.69531,4.94385 c 4.08173,7.18067 10.43154,22.79302 10.82959,28.53662 l 9.97558,-0.69141 c -0.71209,-10.27498 -7.39636,-24.49697 -12.10986,-32.78906 z m -18.36475,1.3125 c -4.8413,6.31905 -11.30113,12.23682 -21.83496,17.56055 l 4.51025,8.92676 c 11.76114,-5.94401 19.60969,-13.03011 25.26124,-20.40674 z"
       inkscape:label="ハ" /></g><g
     clip-path="url(#clip1)"
     clip-rule="nonzero"
     id="g5"
     transform="matrix(0.24827766,0.04656101,-0.04804027,0.25616563,163.70596,154.32793)"
     inkscape:label="Logo"
     inkscape:highlight-color="#ffea00"
     inkscape:transform-center-x="6.2901822"
     inkscape:transform-center-y="-13.58174"><path
       style="fill:#453a62;fill-opacity:1;fill-rule:nonzero;stroke:none"
       d="M 0,340.15625 113.38672,170.07812 0,0 H 85.039062 L 198.42578,170.07812 85.039062,340.15625 Z m 0,0"
       id="path2-0" /><path
       style="fill:#5e5086;fill-opacity:1;fill-rule:nonzero;stroke:none"
       d="M 113.38672,340.15625 226.77344,170.07812 113.38672,0 h 85.03906 L 425.19531,340.15625 H 340.15625 L 269.29297,233.85937 198.42578,340.15625 Z m 0,0"
       id="path3-9" /><path
       style="fill:#8f4e8b;fill-opacity:1;fill-rule:nonzero;stroke:none"
       d="m 387.40234,240.94531 -37.79297,-56.6914 132.28125,-0.004 v 56.69531 z m 0,0"
       id="path4-4" /><path
       style="fill:#8f4e8b;fill-opacity:1;fill-rule:nonzero;stroke:none"
       d="m 330.71094,155.90625 -37.79688,-56.691406 188.97656,-0.0039 v 56.695316 z m 0,0"
       id="path5-8" /></g><g
     inkscape:groupmode="layer"
     id="layer3"
     inkscape:label="let"
     transform="rotate(-2.9047785,-494.04008,4734.8751)"><path
       style="fill:none;stroke:#785088;stroke-width:3.53255;stroke-linecap:butt;stroke-linejoin:miter;stroke-dasharray:none;stroke-opacity:1"
       d="m 361.40573,59.75188 -2.03934,20.026725"
       id="path118"
       sodipodi:nodetypes="cc" /><path
       style="fill:none;stroke:#785088;stroke-width:3.53255;stroke-linecap:butt;stroke-linejoin:miter;stroke-dasharray:none;stroke-opacity:1"
       d="m 368.76495,75.324773 c 1.25455,-0.721768 4.38715,-3.106178 5.0337,-3.688441 -2.21508,-3.160671 -8.17924,-2.508682 -8.53802,2.475855 -0.32485,4.513359 6.60102,8.620788 9.71971,1.920204"
       id="path119"
       sodipodi:nodetypes="ccsc" /><path
       style="fill:none;stroke:#785088;stroke-width:3.53255;stroke-linecap:butt;stroke-linejoin:miter;stroke-dasharray:none;stroke-opacity:1"
       d="m 381.29017,61.882555 -1.88276,19.56624"
       id="path120"
       sodipodi:nodetypes="cc" /><path
       style="fill:none;stroke:#785088;stroke-width:3.53255;stroke-linecap:butt;stroke-linejoin:miter;stroke-dasharray:none;stroke-opacity:1"
       d="m 380.69328,66.317031 6.09015,5.517328"
       id="path121"
       sodipodi:nodetypes="cc" /><path
       style="fill:none;stroke:#785088;stroke-width:3.53255;stroke-linecap:butt;stroke-linejoin:miter;stroke-dasharray:none;stroke-opacity:1"
       d="m 402.88875,70.62152 9.55789,12.787085"
       id="path122"
       sodipodi:nodetypes="cc" /><path
       style="fill:none;stroke:#785088;stroke-width:3.53255;stroke-linecap:butt;stroke-linejoin:miter;stroke-dasharray:none;stroke-opacity:1"
       d="m 412.10941,71.107329 -9.98369,12.023686"
       id="path123"
       sodipodi:nodetypes="cc" /><path
       style="fill:none;stroke:#785088;stroke-width:3.53255;stroke-linecap:butt;stroke-linejoin:miter;stroke-dasharray:none;stroke-opacity:1"
       d="m 420.2181,73.764554 11.89064,1.442763"
       id="path124"
       sodipodi:nodetypes="cc" /><path
       style="fill:none;stroke:#785088;stroke-width:3.53255;stroke-linecap:butt;stroke-linejoin:miter;stroke-dasharray:none;stroke-opacity:1"
       d="m 419.01381,79.627125 13.13113,1.25321"
       id="path125"
       sodipodi:nodetypes="cc" /><path
       style="fill:none;stroke:#785088;stroke-width:3.53255;stroke-linecap:butt;stroke-linejoin:miter;stroke-dasharray:none;stroke-opacity:1"
       d="m 467.33844,75.520801 -1.0774,12.703864"
       id="path129"
       sodipodi:nodetypes="cc" /><path
       style="fill:none;stroke:#785088;stroke-width:3.53255;stroke-linecap:butt;stroke-linejoin:miter;stroke-dasharray:none;stroke-opacity:1"
       d="M 474.43488,75.750197 473.356,89.054095"
       id="path130"
       sodipodi:nodetypes="cc" /><path
       style="fill:none;stroke:#785088;stroke-width:3.53255;stroke-linecap:butt;stroke-linejoin:miter;stroke-dasharray:none;stroke-opacity:1"
       d="m 474.01973,81.083415 c 1.71965,-2.369396 4.74797,-3.749209 6.85067,-0.97852 2.2302,2.93871 -1.66605,5.14066 3.03167,8.73245"
       id="path131"
       sodipodi:nodetypes="csc" /><path
       style="fill:none;stroke:#785088;stroke-width:3.53255;stroke-linecap:butt;stroke-linejoin:miter;stroke-dasharray:none;stroke-opacity:1"
       d="m 440.81083,72.957411 8.94694,13.194184"
       id="path122-2"
       sodipodi:nodetypes="cc" /><path
       style="fill:none;stroke:#785088;stroke-width:3.53255;stroke-linecap:butt;stroke-linejoin:miter;stroke-dasharray:none;stroke-opacity:1"
       d="M 450.52845,73.605927 439.44092,85.070735"
       id="path123-4"
       sodipodi:nodetypes="cc" /><path
       style="fill:none;stroke:#785088;stroke-width:3.53255;stroke-linecap:butt;stroke-linejoin:miter;stroke-dasharray:none;stroke-opacity:1"
       d="m 498.85307,78.39051 9.01512,13.105995"
       id="path122-5"
       sodipodi:nodetypes="cc" /><path
       style="fill:none;stroke:#785088;stroke-width:3.53255;stroke-linecap:butt;stroke-linejoin:miter;stroke-dasharray:none;stroke-opacity:1"
       d="m 508.79647,79.241905 -11.23555,10.94586"
       id="path123-1"
       sodipodi:nodetypes="cc" /></g><g
     inkscape:groupmode="layer"
     id="layer4"
     inkscape:label="fmap"
     transform="matrix(0.78025665,0.1417704,-0.1417704,0.78025665,92.88133,-2.070513)"><path
       id="path145"
       style="baseline-shift:baseline;display:inline;overflow:visible;opacity:1;vector-effect:none;fill:#5e5086;fill-opacity:1;stroke-width:1.07337;enable-background:accumulate;stop-color:#000000;stop-opacity:1"
       d="m 270.10735,149.32733 -1.99151,12.37426 10.31504,8.72638 -12.59457,5.43747 -2.02212,12.56439 28.7595,-12.41779 1.08803,-6.76046 z"
       sodipodi:nodetypes="cccccccc" /><path
       style="fill:none;stroke:#8f4e8b;stroke-width:13.5533;stroke-linecap:butt;stroke-linejoin:miter;stroke-dasharray:none;stroke-opacity:1"
       d="m 260.72417,155.10478 c -9.83719,-16.17626 -24.68772,-10.44822 -26.33768,-1.40896 -1.64997,9.03925 9.31937,12.83504 10.93085,13.72254 1.61149,0.88749 11.45108,3.84171 9.73922,12.88535 -1.71186,9.04366 -16.17971,10.94379 -25.96346,-3.60885"
       id="path146"
       sodipodi:nodetypes="czzzc" /><path
       style="fill:none;stroke:#8f4e8b;stroke-width:8.68783;stroke-linecap:butt;stroke-linejoin:miter;stroke-dasharray:none;stroke-opacity:1"
       d="m 250.32123,132.50107 -10.991,67.14367"
       id="path147"
       sodipodi:nodetypes="cc" /><path
       id="path154"
       style="baseline-shift:baseline;display:inline;overflow:visible;opacity:1;vector-effect:none;fill:#5e5086;fill-opacity:1;stroke-width:1.07337;enable-background:accumulate;stop-color:#000000;stop-opacity:1"
       d="m 226.13738,142.27429 -1.99151,12.37425 -12.53211,5.04938 10.25258,9.11448 -2.02212,12.56438 -23.41113,-20.81413 1.08802,-6.76044 z"
       sodipodi:nodetypes="cccccccc" /></g></svg>
